<svg width="116" height="116" viewBox="0 0 116 116" fill="none" xmlns="http://www.w3.org/2000/svg">
<circle cx="58" cy="58" r="58" fill="#D9D9D9"/>
<path d="M86.4315 89.9853V82.8774C86.4315 79.1072 84.9337 75.4914 82.2678 72.8254C79.6018 70.1595 75.986 68.6618 72.2158 68.6618H43.7844C40.0142 68.6618 36.3984 70.1595 33.7324 72.8254C31.0664 75.4914 29.5687 79.1072 29.5687 82.8774V89.9853M72.2158 40.2304C72.2158 48.0815 65.8512 54.4461 58.0001 54.4461C50.149 54.4461 43.7844 48.0815 43.7844 40.2304C43.7844 32.3793 50.149 26.0147 58.0001 26.0147C65.8512 26.0147 72.2158 32.3793 72.2158 40.2304Z" stroke="#1E1E1E" stroke-width="4" stroke-linecap="round" stroke-linejoin="round"/>
</svg>
