<svg width="100" height="100" viewBox="0 0 100 100" fill="none" xmlns="http://www.w3.org/2000/svg">
<rect width="100" height="100" rx="50" fill="#50C878"/>
<path d="M20.44 45V27.24H28.264C29.592 27.24 30.76 27.456 31.768 27.888C32.776 28.32 33.56 28.96 34.12 29.808C34.68 30.64 34.96 31.672 34.96 32.904C34.96 34.104 34.68 35.128 34.12 35.976C33.576 36.808 32.824 37.44 31.864 37.872L35.32 45H30.256L27.256 38.568H25.048V45H20.44ZM28.192 31.2H25.048V34.896H28.192C28.832 34.896 29.352 34.736 29.752 34.416C30.152 34.096 30.352 33.64 30.352 33.048C30.352 32.44 30.152 31.984 29.752 31.68C29.352 31.36 28.832 31.2 28.192 31.2ZM41.6658 32.04C42.2898 32.04 42.8258 32.128 43.2738 32.304C43.7218 32.464 44.0818 32.648 44.3538 32.856C44.6418 33.064 44.8498 33.256 44.9778 33.432C45.1218 33.592 45.1938 33.672 45.1938 33.672H45.3858V32.28H49.9458V45H45.3858V43.608H45.1938C45.1938 43.608 45.1218 43.696 44.9778 43.872C44.8498 44.032 44.6418 44.216 44.3538 44.424C44.0818 44.632 43.7218 44.824 43.2738 45C42.8258 45.16 42.2898 45.24 41.6658 45.24C40.7378 45.24 39.9298 45.056 39.2418 44.688C38.5698 44.304 38.0018 43.8 37.5378 43.176C37.0898 42.536 36.7538 41.824 36.5298 41.04C36.3058 40.256 36.1938 39.456 36.1938 38.64C36.1938 37.824 36.3058 37.024 36.5298 36.24C36.7538 35.456 37.0898 34.752 37.5378 34.128C38.0018 33.488 38.5698 32.984 39.2418 32.616C39.9298 32.232 40.7378 32.04 41.6658 32.04ZM43.1778 35.664C42.6498 35.664 42.2098 35.816 41.8578 36.12C41.5058 36.408 41.2418 36.784 41.0658 37.248C40.8898 37.696 40.8018 38.16 40.8018 38.64C40.8018 39.12 40.8898 39.592 41.0658 40.056C41.2418 40.504 41.5058 40.88 41.8578 41.184C42.2098 41.472 42.6498 41.616 43.1778 41.616C43.7058 41.616 44.1458 41.472 44.4978 41.184C44.8498 40.88 45.1138 40.504 45.2898 40.056C45.4658 39.592 45.5538 39.12 45.5538 38.64C45.5538 38.16 45.4658 37.696 45.2898 37.248C45.1138 36.784 44.8498 36.408 44.4978 36.12C44.1458 35.816 43.7058 35.664 43.1778 35.664ZM51.9822 45V32.28H56.5422V34.08H56.6622C56.8382 33.792 57.0622 33.496 57.3342 33.192C57.6222 32.872 57.9982 32.6 58.4622 32.376C58.9262 32.152 59.5102 32.04 60.2142 32.04C61.2542 32.04 62.0702 32.28 62.6622 32.76C63.2702 33.224 63.7022 33.816 63.9582 34.536C64.2142 35.24 64.3422 35.952 64.3422 36.672V45H59.7822V37.584C59.7822 37.12 59.6622 36.696 59.4222 36.312C59.1822 35.912 58.7662 35.712 58.1742 35.712C57.5502 35.712 57.1182 35.912 56.8782 36.312C56.6542 36.712 56.5422 37.136 56.5422 37.584V45H51.9822ZM66.5078 45V26.76H71.0678V37.152L74.6918 32.28H79.6358L75.1718 38.088L79.8998 45H74.6918L71.0678 39.624V45H66.5078ZM22.168 57.856C21.736 57.856 21.376 57.712 21.088 57.424C20.816 57.136 20.68 56.792 20.68 56.392C20.68 55.976 20.816 55.624 21.088 55.336C21.376 55.048 21.736 54.904 22.168 54.904C22.584 54.904 22.936 55.048 23.224 55.336C23.512 55.624 23.656 55.976 23.656 56.392C23.656 56.792 23.512 57.136 23.224 57.424C22.936 57.712 22.584 57.856 22.168 57.856ZM21.04 73V60.28H23.32V73H21.04ZM28.0161 73V62.152H25.9281V60.28H28.0161V58.72C28.0161 58.048 28.1361 57.392 28.3761 56.752C28.6161 56.096 29.0161 55.56 29.5761 55.144C30.1361 54.728 30.8961 54.52 31.8561 54.52C32.3201 54.52 32.6881 54.56 32.9601 54.64C33.2481 54.704 33.3921 54.736 33.3921 54.736V56.536C33.3921 56.536 33.2641 56.512 33.0081 56.464C32.7681 56.4 32.4881 56.368 32.1681 56.368C31.4321 56.368 30.9361 56.592 30.6801 57.04C30.4241 57.488 30.2961 58.048 30.2961 58.72V60.28H33.2481V62.152H30.2961V73H28.0161ZM35.7859 77.68C35.4179 77.68 35.1059 77.664 34.8499 77.632C34.5939 77.6 34.4659 77.584 34.4659 77.584V75.64C34.4659 75.64 34.5939 75.648 34.8499 75.664C35.1219 75.696 35.4099 75.712 35.7139 75.712C36.6579 75.712 37.4259 75.512 38.0179 75.112C38.6259 74.728 39.1379 74.088 39.5539 73.192L34.6339 60.28H37.0099L40.6819 70.216L44.3779 60.28H46.7779L41.8579 73.024C41.2339 74.624 40.4259 75.8 39.4339 76.552C38.4579 77.304 37.2419 77.68 35.7859 77.68Z" fill="white"/>
</svg>
