<svg width="358" height="161" viewBox="0 0 358 161" fill="none" xmlns="http://www.w3.org/2000/svg">
<path d="M6.20749 96V24.96H37.5035C42.8155 24.96 47.4875 25.824 51.5195 27.552C55.5515 29.28 58.6875 31.84 60.9275 35.232C63.1675 38.56 64.2875 42.688 64.2875 47.616C64.2875 52.416 63.1675 56.512 60.9275 59.904C58.7515 63.232 55.7435 65.76 51.9035 67.488L65.7275 96H45.4715L33.4715 70.272H24.6395V96H6.20749ZM37.2155 40.8H24.6395V55.584H37.2155C39.7755 55.584 41.8555 54.944 43.4555 53.664C45.0555 52.384 45.8555 50.56 45.8555 48.192C45.8555 45.76 45.0555 43.936 43.4555 42.72C41.8555 41.44 39.7755 40.8 37.2155 40.8ZM91.1105 44.16C93.6065 44.16 95.7505 44.512 97.5425 45.216C99.3345 45.856 100.774 46.592 101.862 47.424C103.014 48.256 103.846 49.024 104.358 49.728C104.934 50.368 105.222 50.688 105.222 50.688H105.99V45.12H124.23V96H105.99V90.432H105.222C105.222 90.432 104.934 90.784 104.358 91.488C103.846 92.128 103.014 92.864 101.862 93.696C100.774 94.528 99.3345 95.296 97.5425 96C95.7505 96.64 93.6065 96.96 91.1105 96.96C87.3985 96.96 84.1665 96.224 81.4145 94.752C78.7265 93.216 76.4545 91.2 74.5985 88.704C72.8065 86.144 71.4625 83.296 70.5665 80.16C69.6705 77.024 69.2225 73.824 69.2225 70.56C69.2225 67.296 69.6705 64.096 70.5665 60.96C71.4625 57.824 72.8065 55.008 74.5985 52.512C76.4545 49.952 78.7265 47.936 81.4145 46.464C84.1665 44.928 87.3985 44.16 91.1105 44.16ZM97.1585 58.656C95.0465 58.656 93.2865 59.264 91.8785 60.48C90.4705 61.632 89.4145 63.136 88.7105 64.992C88.0065 66.784 87.6545 68.64 87.6545 70.56C87.6545 72.48 88.0065 74.368 88.7105 76.224C89.4145 78.016 90.4705 79.52 91.8785 80.736C93.2865 81.888 95.0465 82.464 97.1585 82.464C99.2705 82.464 101.03 81.888 102.438 80.736C103.846 79.52 104.902 78.016 105.606 76.224C106.31 74.368 106.662 72.48 106.662 70.56C106.662 68.64 106.31 66.784 105.606 64.992C104.902 63.136 103.846 61.632 102.438 60.48C101.03 59.264 99.2705 58.656 97.1585 58.656ZM132.376 96V45.12H150.616V52.32H151.096C151.8 51.168 152.696 49.984 153.784 48.768C154.936 47.488 156.44 46.4 158.296 45.504C160.152 44.608 162.488 44.16 165.304 44.16C169.464 44.16 172.728 45.12 175.096 47.04C177.528 48.896 179.256 51.264 180.28 54.144C181.304 56.96 181.816 59.808 181.816 62.688V96H163.576V66.336C163.576 64.48 163.096 62.784 162.136 61.248C161.176 59.648 159.512 58.848 157.144 58.848C154.648 58.848 152.92 59.648 151.96 61.248C151.064 62.848 150.616 64.544 150.616 66.336V96H132.376ZM190.479 96V23.04H208.719V64.608L223.215 45.12H242.991L225.135 68.352L244.047 96H223.215L208.719 74.496V96H190.479ZM255.752 35.424C254.024 35.424 252.584 34.848 251.432 33.696C250.344 32.544 249.8 31.168 249.8 29.568C249.8 27.904 250.344 26.496 251.432 25.344C252.584 24.192 254.024 23.616 255.752 23.616C257.416 23.616 258.824 24.192 259.976 25.344C261.128 26.496 261.704 27.904 261.704 29.568C261.704 31.168 261.128 32.544 259.976 33.696C258.824 34.848 257.416 35.424 255.752 35.424ZM251.24 96V45.12H260.36V96H251.24ZM279.144 96V52.608H270.792V45.12H279.144V38.88C279.144 36.192 279.624 33.568 280.584 31.008C281.544 28.384 283.144 26.24 285.384 24.576C287.624 22.912 290.664 22.08 294.504 22.08C296.36 22.08 297.832 22.24 298.92 22.56C300.072 22.816 300.648 22.944 300.648 22.944V30.144C300.648 30.144 300.136 30.048 299.112 29.856C298.152 29.6 297.032 29.472 295.752 29.472C292.808 29.472 290.824 30.368 289.8 32.16C288.776 33.952 288.264 36.192 288.264 38.88V45.12H300.072V52.608H288.264V96H279.144ZM310.224 114.72C308.752 114.72 307.504 114.656 306.48 114.528C305.456 114.4 304.944 114.336 304.944 114.336V106.56C304.944 106.56 305.456 106.592 306.48 106.656C307.568 106.784 308.72 106.848 309.936 106.848C313.712 106.848 316.784 106.048 319.152 104.448C321.584 102.912 323.632 100.352 325.296 96.768L305.616 45.12H315.12L329.808 84.864L344.592 45.12H354.192L334.512 96.096C332.016 102.496 328.784 107.2 324.816 110.208C320.912 113.216 316.048 114.72 310.224 114.72Z" fill="white"/>
<path d="M46.5534 138.06C46.9134 137.433 47.4467 136.913 48.1534 136.5C48.8734 136.073 49.7067 135.86 50.6534 135.86C51.6267 135.86 52.5067 136.093 53.2934 136.56C54.0934 137.027 54.72 137.687 55.1734 138.54C55.6267 139.38 55.8534 140.36 55.8534 141.48C55.8534 142.587 55.6267 143.573 55.1734 144.44C54.72 145.307 54.0934 145.98 53.2934 146.46C52.5067 146.94 51.6267 147.18 50.6534 147.18C49.72 147.18 48.8934 146.973 48.1734 146.56C47.4667 146.133 46.9267 145.607 46.5534 144.98V152.2H44.7334V136.04H46.5534V138.06ZM53.9934 141.48C53.9934 140.653 53.8267 139.933 53.4934 139.32C53.16 138.707 52.7067 138.24 52.1334 137.92C51.5734 137.6 50.9534 137.44 50.2734 137.44C49.6067 137.44 48.9867 137.607 48.4134 137.94C47.8534 138.26 47.4 138.733 47.0534 139.36C46.72 139.973 46.5534 140.687 46.5534 141.5C46.5534 142.327 46.72 143.053 47.0534 143.68C47.4 144.293 47.8534 144.767 48.4134 145.1C48.9867 145.42 49.6067 145.58 50.2734 145.58C50.9534 145.58 51.5734 145.42 52.1334 145.1C52.7067 144.767 53.16 144.293 53.4934 143.68C53.8267 143.053 53.9934 142.32 53.9934 141.48ZM63.029 147.18C62.0023 147.18 61.069 146.947 60.229 146.48C59.4023 146.013 58.749 145.353 58.269 144.5C57.8023 143.633 57.569 142.633 57.569 141.5C57.569 140.38 57.809 139.393 58.289 138.54C58.7823 137.673 59.449 137.013 60.289 136.56C61.129 136.093 62.069 135.86 63.109 135.86C64.149 135.86 65.089 136.093 65.929 136.56C66.769 137.013 67.429 137.667 67.909 138.52C68.4023 139.373 68.649 140.367 68.649 141.5C68.649 142.633 68.3957 143.633 67.889 144.5C67.3957 145.353 66.7223 146.013 65.869 146.48C65.0157 146.947 64.069 147.18 63.029 147.18ZM63.029 145.58C63.6823 145.58 64.2957 145.427 64.869 145.12C65.4423 144.813 65.9023 144.353 66.249 143.74C66.609 143.127 66.789 142.38 66.789 141.5C66.789 140.62 66.6157 139.873 66.269 139.26C65.9223 138.647 65.469 138.193 64.909 137.9C64.349 137.593 63.7423 137.44 63.089 137.44C62.4223 137.44 61.809 137.593 61.249 137.9C60.7023 138.193 60.2623 138.647 59.929 139.26C59.5957 139.873 59.429 140.62 59.429 141.5C59.429 142.393 59.589 143.147 59.909 143.76C60.2423 144.373 60.6823 144.833 61.229 145.14C61.7757 145.433 62.3757 145.58 63.029 145.58ZM85.642 136.04L82.222 147H80.342L77.702 138.3L75.062 147H73.182L69.742 136.04H71.602L74.122 145.24L76.842 136.04H78.702L81.362 145.26L83.842 136.04H85.642ZM97.4482 141.1C97.4482 141.447 97.4282 141.813 97.3882 142.2H88.6282C88.6949 143.28 89.0615 144.127 89.7282 144.74C90.4082 145.34 91.2282 145.64 92.1882 145.64C92.9749 145.64 93.6282 145.46 94.1482 145.1C94.6815 144.727 95.0549 144.233 95.2682 143.62H97.2282C96.9349 144.673 96.3482 145.533 95.4682 146.2C94.5882 146.853 93.4949 147.18 92.1882 147.18C91.1482 147.18 90.2149 146.947 89.3882 146.48C88.5749 146.013 87.9349 145.353 87.4682 144.5C87.0015 143.633 86.7682 142.633 86.7682 141.5C86.7682 140.367 86.9949 139.373 87.4482 138.52C87.9015 137.667 88.5349 137.013 89.3482 136.56C90.1749 136.093 91.1215 135.86 92.1882 135.86C93.2282 135.86 94.1482 136.087 94.9482 136.54C95.7482 136.993 96.3615 137.62 96.7882 138.42C97.2282 139.207 97.4482 140.1 97.4482 141.1ZM95.5682 140.72C95.5682 140.027 95.4149 139.433 95.1082 138.94C94.8015 138.433 94.3815 138.053 93.8482 137.8C93.3282 137.533 92.7482 137.4 92.1082 137.4C91.1882 137.4 90.4015 137.693 89.7482 138.28C89.1082 138.867 88.7415 139.68 88.6482 140.72H95.5682ZM101.671 137.82C101.991 137.193 102.444 136.707 103.031 136.36C103.631 136.013 104.357 135.84 105.211 135.84V137.72H104.731C102.691 137.72 101.671 138.827 101.671 141.04V147H99.8505V136.04H101.671V137.82ZM117.311 141.1C117.311 141.447 117.291 141.813 117.251 142.2H108.491C108.558 143.28 108.925 144.127 109.591 144.74C110.271 145.34 111.091 145.64 112.051 145.64C112.838 145.64 113.491 145.46 114.011 145.1C114.545 144.727 114.918 144.233 115.131 143.62H117.091C116.798 144.673 116.211 145.533 115.331 146.2C114.451 146.853 113.358 147.18 112.051 147.18C111.011 147.18 110.078 146.947 109.251 146.48C108.438 146.013 107.798 145.353 107.331 144.5C106.865 143.633 106.631 142.633 106.631 141.5C106.631 140.367 106.858 139.373 107.311 138.52C107.765 137.667 108.398 137.013 109.211 136.56C110.038 136.093 110.985 135.86 112.051 135.86C113.091 135.86 114.011 136.087 114.811 136.54C115.611 136.993 116.225 137.62 116.651 138.42C117.091 139.207 117.311 140.1 117.311 141.1ZM115.431 140.72C115.431 140.027 115.278 139.433 114.971 138.94C114.665 138.433 114.245 138.053 113.711 137.8C113.191 137.533 112.611 137.4 111.971 137.4C111.051 137.4 110.265 137.693 109.611 138.28C108.971 138.867 108.605 139.68 108.511 140.72H115.431ZM119.034 141.48C119.034 140.36 119.26 139.38 119.714 138.54C120.167 137.687 120.787 137.027 121.574 136.56C122.374 136.093 123.267 135.86 124.254 135.86C125.107 135.86 125.9 136.06 126.634 136.46C127.367 136.847 127.927 137.36 128.314 138V132.2H130.154V147H128.314V144.94C127.954 145.593 127.42 146.133 126.714 146.56C126.007 146.973 125.18 147.18 124.234 147.18C123.26 147.18 122.374 146.94 121.574 146.46C120.787 145.98 120.167 145.307 119.714 144.44C119.26 143.573 119.034 142.587 119.034 141.48ZM128.314 141.5C128.314 140.673 128.147 139.953 127.814 139.34C127.48 138.727 127.027 138.26 126.454 137.94C125.894 137.607 125.274 137.44 124.594 137.44C123.914 137.44 123.294 137.6 122.734 137.92C122.174 138.24 121.727 138.707 121.394 139.32C121.06 139.933 120.894 140.653 120.894 141.48C120.894 142.32 121.06 143.053 121.394 143.68C121.727 144.293 122.174 144.767 122.734 145.1C123.294 145.42 123.914 145.58 124.594 145.58C125.274 145.58 125.894 145.42 126.454 145.1C127.027 144.767 127.48 144.293 127.814 143.68C128.147 143.053 128.314 142.327 128.314 141.5ZM140.381 138.08C140.755 137.427 141.301 136.893 142.021 136.48C142.741 136.067 143.561 135.86 144.481 135.86C145.468 135.86 146.355 136.093 147.141 136.56C147.928 137.027 148.548 137.687 149.001 138.54C149.455 139.38 149.681 140.36 149.681 141.48C149.681 142.587 149.455 143.573 149.001 144.44C148.548 145.307 147.921 145.98 147.121 146.46C146.335 146.94 145.455 147.18 144.481 147.18C143.535 147.18 142.701 146.973 141.981 146.56C141.275 146.147 140.741 145.62 140.381 144.98V147H138.561V132.2H140.381V138.08ZM147.821 141.48C147.821 140.653 147.655 139.933 147.321 139.32C146.988 138.707 146.535 138.24 145.961 137.92C145.401 137.6 144.781 137.44 144.101 137.44C143.435 137.44 142.815 137.607 142.241 137.94C141.681 138.26 141.228 138.733 140.881 139.36C140.548 139.973 140.381 140.687 140.381 141.5C140.381 142.327 140.548 143.053 140.881 143.68C141.228 144.293 141.681 144.767 142.241 145.1C142.815 145.42 143.435 145.58 144.101 145.58C144.781 145.58 145.401 145.42 145.961 145.1C146.535 144.767 146.988 144.293 147.321 143.68C147.655 143.053 147.821 142.32 147.821 141.48ZM161.517 136.04L154.917 152.16H153.037L155.197 146.88L150.777 136.04H152.797L156.237 144.92L159.637 136.04H161.517Z" fill="white"/>
<path d="M195.493 121.558C185.154 121.154 176.442 129.083 176.031 139.269C175.62 149.455 183.669 158.038 194.006 158.443C204.345 158.848 213.057 150.919 213.468 140.733C213.877 130.547 205.83 121.962 195.493 121.558ZM203.4 148.598C203.167 149.003 202.713 149.205 202.272 149.144C202.136 149.126 202.001 149.082 201.874 149.011C199.398 147.623 196.7 146.719 193.854 146.324C191.008 145.929 188.161 146.066 185.392 146.729C184.791 146.872 184.186 146.509 184.041 145.917C183.895 145.325 184.263 144.73 184.864 144.586C187.909 143.857 191.039 143.707 194.166 144.141C197.292 144.574 200.258 145.568 202.982 147.095C203.518 147.397 203.706 148.068 203.402 148.598H203.4ZM205.862 143.753C205.48 144.448 204.597 144.708 203.891 144.331C200.994 142.788 197.857 141.774 194.568 141.318C191.279 140.863 187.981 140.986 184.763 141.683C184.589 141.72 184.416 141.727 184.248 141.703C183.664 141.622 183.164 141.194 183.031 140.591C182.858 139.819 183.354 139.054 184.138 138.884C187.695 138.113 191.34 137.976 194.974 138.479C198.606 138.982 202.073 140.102 205.275 141.809C205.982 142.186 206.244 143.054 205.862 143.751V143.753ZM208.592 138.29C208.232 138.972 207.484 139.324 206.754 139.223C206.557 139.196 206.364 139.135 206.177 139.041C202.804 137.312 199.171 136.17 195.378 135.645C191.585 135.12 187.772 135.232 184.046 135.977C183.077 136.171 182.133 135.554 181.936 134.601C181.74 133.646 182.366 132.716 183.334 132.522C187.46 131.697 191.679 131.574 195.876 132.155C200.073 132.735 204.093 134 207.83 135.915C208.706 136.364 209.047 137.428 208.592 138.292V138.29Z" fill="#1ED760"/>
<path d="M228.543 149.647C225.312 149.647 222.538 148.546 221.379 147.294C221.269 147.171 221.254 147.103 221.254 146.953V143.226C221.254 143.049 221.406 142.982 221.53 143.132C222.923 144.846 225.893 146.246 228.322 146.246C230.255 146.246 231.553 145.73 231.553 144.043C231.553 143.036 231.071 142.383 228.434 141.649L226.915 141.227C223.394 140.249 221.254 139.092 221.254 135.773C221.254 132.836 224.014 130.252 228.625 130.252C230.889 130.252 233.139 130.945 234.437 131.898C234.546 131.979 234.589 132.062 234.589 132.21V135.598C234.589 135.829 234.396 135.896 234.216 135.748C233.166 134.891 231.137 133.735 228.735 133.735C226.333 133.735 225.201 134.796 225.201 135.775C225.201 136.809 225.932 137.094 228.541 137.857L229.839 138.238C233.856 139.42 235.5 141.081 235.5 143.829C235.5 147.365 232.519 149.651 228.543 149.651V149.647ZM256.691 142.547C256.691 140.384 258.21 138.779 260.351 138.779C262.491 138.779 263.994 140.384 263.994 142.547C263.994 144.709 262.476 146.314 260.351 146.314C258.226 146.314 256.691 144.709 256.691 142.547ZM260.335 149.647C264.794 149.647 267.9 146.506 267.9 142.547C267.9 138.587 264.794 135.446 260.335 135.446C255.876 135.446 252.784 138.56 252.784 142.547C252.784 146.533 255.863 149.647 260.335 149.647ZM287.256 134.631V135.773H284.908C284.783 135.773 284.715 135.841 284.715 135.964V138.683C284.715 138.806 284.783 138.874 284.908 138.874H287.256V149.129C287.256 149.252 287.324 149.32 287.449 149.32H290.983C291.108 149.32 291.177 149.252 291.177 149.129V138.874H294.201L298.591 148.272L296.23 153.386C296.161 153.536 296.244 153.603 296.382 153.603H300.151C300.276 153.603 300.331 153.576 300.386 153.453L308.185 135.989C308.24 135.866 308.171 135.771 308.033 135.771H304.499C304.374 135.771 304.319 135.798 304.264 135.922L300.702 144.355L297.127 135.922C297.072 135.798 297.018 135.771 296.893 135.771H291.177V134.874C291.177 133.405 292.185 132.725 293.482 132.725C294.254 132.725 295.096 133.119 295.691 133.472C295.829 133.553 295.925 133.459 295.87 133.335L294.627 130.412C294.586 130.317 294.531 130.262 294.434 130.208C293.826 129.896 292.833 129.622 291.865 129.622C288.939 129.622 287.254 131.826 287.254 134.628L287.256 134.631ZM245.647 149.565C249.181 149.565 251.721 146.558 251.721 142.52C251.721 138.481 249.152 135.529 245.618 135.529C242.995 135.529 241.476 137.106 240.593 138.683V135.964C240.593 135.841 240.524 135.773 240.399 135.773H236.933C236.808 135.773 236.74 135.841 236.74 135.964V153.414C236.74 153.537 236.808 153.605 236.933 153.605H240.399C240.524 153.605 240.593 153.537 240.593 153.414V146.437C241.476 148.014 242.968 149.565 245.646 149.565H245.647ZM275.135 149.511C276.294 149.511 277.412 149.212 278.075 148.831C278.17 148.777 278.184 148.723 278.184 148.627V146.042C278.184 145.905 278.116 145.865 277.991 145.934C277.59 146.152 277.066 146.329 276.349 146.329C275.217 146.329 274.499 145.676 274.499 144.234V138.874H277.951C278.076 138.874 278.145 138.806 278.145 138.683V135.964C278.145 135.841 278.076 135.773 277.951 135.773H274.499V132.224C274.499 132.074 274.403 131.993 274.265 132.101L268.094 136.888C268.011 136.956 267.984 137.025 267.984 137.133V138.683C267.984 138.806 268.053 138.874 268.178 138.874H270.58V144.804C270.58 148.014 272.457 149.511 275.136 149.511H275.135ZM279.124 131.748C279.124 132.973 280.09 133.897 281.415 133.897C282.741 133.897 283.734 132.973 283.734 131.748C283.734 130.523 282.768 129.599 281.415 129.599C280.063 129.599 279.124 130.523 279.124 131.748ZM279.662 149.322H283.196C283.321 149.322 283.389 149.254 283.389 149.131V135.965C283.389 135.842 283.321 135.775 283.196 135.775H279.662C279.537 135.775 279.468 135.842 279.468 135.965V149.131C279.468 149.254 279.537 149.322 279.662 149.322ZM240.51 142.494C241.146 140.399 242.608 138.795 244.596 138.795C246.584 138.795 247.798 140.208 247.798 142.521C247.798 144.834 246.486 146.275 244.596 146.275C242.706 146.275 241.144 144.48 240.51 142.494Z" fill="#1ED760"/>
<path d="M312.712 136.573C312.531 136.264 312.279 136.023 311.957 135.847C311.635 135.674 311.276 135.586 310.875 135.586C310.474 135.586 310.115 135.674 309.793 135.847C309.471 136.023 309.219 136.264 309.038 136.573C308.856 136.882 308.766 137.231 308.766 137.62C308.766 138.01 308.856 138.353 309.038 138.661C309.219 138.97 309.471 139.211 309.793 139.387C310.115 139.562 310.474 139.648 310.875 139.648C311.276 139.648 311.635 139.561 311.957 139.387C312.279 139.213 312.531 138.97 312.712 138.661C312.894 138.353 312.985 138.007 312.985 137.62C312.985 137.234 312.894 136.882 312.712 136.573ZM312.382 138.489C312.235 138.746 312.029 138.945 311.767 139.09C311.505 139.233 311.207 139.306 310.877 139.306C310.546 139.306 310.24 139.233 309.978 139.09C309.716 138.946 309.512 138.746 309.367 138.489C309.221 138.235 309.149 137.944 309.149 137.62C309.149 137.297 309.221 137.008 309.367 136.755C309.512 136.502 309.716 136.303 309.978 136.16C310.24 136.016 310.539 135.944 310.877 135.944C311.214 135.944 311.505 136.016 311.767 136.16C312.029 136.303 312.235 136.504 312.382 136.76C312.529 137.017 312.603 137.305 312.603 137.629C312.603 137.953 312.529 138.235 312.382 138.491V138.489Z" fill="#1ED760"/>
<path d="M311.593 137.582C311.733 137.48 311.803 137.345 311.803 137.178C311.803 137.011 311.735 136.87 311.598 136.769C311.461 136.667 311.262 136.617 311.002 136.617H310.084V138.506H310.528V137.755H310.769L311.353 138.506H311.897L311.259 137.71C311.394 137.685 311.509 137.642 311.594 137.58L311.593 137.582ZM310.932 137.415H310.528V136.952H310.947C311.072 136.952 311.168 136.971 311.235 137.01C311.301 137.049 311.336 137.108 311.336 137.189C311.336 137.265 311.3 137.322 311.231 137.359C311.161 137.398 311.062 137.416 310.932 137.416V137.415Z" fill="#1ED760"/>
</svg>
