<svg width="125" height="34" viewBox="0 0 125 34" fill="none" xmlns="http://www.w3.org/2000/svg">
<path d="M17.44 26V8.24H25.264C26.592 8.24 27.76 8.456 28.768 8.888C29.776 9.32 30.56 9.96 31.12 10.808C31.68 11.64 31.96 12.672 31.96 13.904C31.96 15.104 31.68 16.128 31.12 16.976C30.576 17.808 29.824 18.44 28.864 18.872L32.32 26H27.256L24.256 19.568H22.048V26H17.44ZM25.192 12.2H22.048V15.896H25.192C25.832 15.896 26.352 15.736 26.752 15.416C27.152 15.096 27.352 14.64 27.352 14.048C27.352 13.44 27.152 12.984 26.752 12.68C26.352 12.36 25.832 12.2 25.192 12.2ZM39.1458 13.04C39.7698 13.04 40.3058 13.128 40.7538 13.304C41.2018 13.464 41.5618 13.648 41.8338 13.856C42.1218 14.064 42.3298 14.256 42.4578 14.432C42.6018 14.592 42.6738 14.672 42.6738 14.672H42.8658V13.28H47.4258V26H42.8658V24.608H42.6738C42.6738 24.608 42.6018 24.696 42.4578 24.872C42.3298 25.032 42.1218 25.216 41.8338 25.424C41.5618 25.632 41.2018 25.824 40.7538 26C40.3058 26.16 39.7698 26.24 39.1458 26.24C38.2178 26.24 37.4098 26.056 36.7218 25.688C36.0498 25.304 35.4818 24.8 35.0178 24.176C34.5698 23.536 34.2338 22.824 34.0098 22.04C33.7858 21.256 33.6738 20.456 33.6738 19.64C33.6738 18.824 33.7858 18.024 34.0098 17.24C34.2338 16.456 34.5698 15.752 35.0178 15.128C35.4818 14.488 36.0498 13.984 36.7218 13.616C37.4098 13.232 38.2178 13.04 39.1458 13.04ZM40.6578 16.664C40.1298 16.664 39.6898 16.816 39.3378 17.12C38.9858 17.408 38.7218 17.784 38.5458 18.248C38.3698 18.696 38.2818 19.16 38.2818 19.64C38.2818 20.12 38.3698 20.592 38.5458 21.056C38.7218 21.504 38.9858 21.88 39.3378 22.184C39.6898 22.472 40.1298 22.616 40.6578 22.616C41.1858 22.616 41.6258 22.472 41.9778 22.184C42.3298 21.88 42.5938 21.504 42.7698 21.056C42.9458 20.592 43.0338 20.12 43.0338 19.64C43.0338 19.16 42.9458 18.696 42.7698 18.248C42.5938 17.784 42.3298 17.408 41.9778 17.12C41.6258 16.816 41.1858 16.664 40.6578 16.664ZM49.9422 26V13.28H54.5022V15.08H54.6222C54.7982 14.792 55.0222 14.496 55.2942 14.192C55.5822 13.872 55.9582 13.6 56.4222 13.376C56.8862 13.152 57.4702 13.04 58.1742 13.04C59.2142 13.04 60.0302 13.28 60.6222 13.76C61.2302 14.224 61.6622 14.816 61.9182 15.536C62.1742 16.24 62.3022 16.952 62.3022 17.672V26H57.7422V18.584C57.7422 18.12 57.6222 17.696 57.3822 17.312C57.1422 16.912 56.7262 16.712 56.1342 16.712C55.5102 16.712 55.0782 16.912 54.8382 17.312C54.6142 17.712 54.5022 18.136 54.5022 18.584V26H49.9422ZM64.9478 26V7.76H69.5078V18.152L73.1318 13.28H78.0758L73.6118 19.088L78.3398 26H73.1318L69.5078 20.624V26H64.9478ZM81.7461 10.856C81.3141 10.856 80.9541 10.712 80.6661 10.424C80.3941 10.136 80.2581 9.792 80.2581 9.392C80.2581 8.976 80.3941 8.624 80.6661 8.336C80.9541 8.048 81.3141 7.904 81.7461 7.904C82.1621 7.904 82.5141 8.048 82.8021 8.336C83.0901 8.624 83.2341 8.976 83.2341 9.392C83.2341 9.792 83.0901 10.136 82.8021 10.424C82.5141 10.712 82.1621 10.856 81.7461 10.856ZM80.6181 26V13.28H82.8981V26H80.6181ZM88.0742 26V15.152H85.9863V13.28H88.0742V11.72C88.0742 11.048 88.1942 10.392 88.4342 9.752C88.6743 9.096 89.0743 8.56 89.6343 8.144C90.1943 7.728 90.9543 7.52 91.9143 7.52C92.3783 7.52 92.7463 7.56 93.0183 7.64C93.3063 7.704 93.4503 7.736 93.4503 7.736V9.536C93.4503 9.536 93.3223 9.512 93.0663 9.464C92.8263 9.4 92.5463 9.368 92.2263 9.368C91.4903 9.368 90.9943 9.592 90.7383 10.04C90.4823 10.488 90.3543 11.048 90.3543 11.72V13.28H93.3063V15.152H90.3543V26H88.0742ZM96.3241 30.68C95.9561 30.68 95.6441 30.664 95.3881 30.632C95.1321 30.6 95.0041 30.584 95.0041 30.584V28.64C95.0041 28.64 95.1321 28.648 95.3881 28.664C95.6601 28.696 95.9481 28.712 96.2521 28.712C97.1961 28.712 97.9641 28.512 98.5561 28.112C99.1641 27.728 99.6761 27.088 100.092 26.192L95.1721 13.28H97.5481L101.22 23.216L104.916 13.28H107.316L102.396 26.024C101.772 27.624 100.964 28.8 99.9721 29.552C98.9961 30.304 97.7801 30.68 96.3241 30.68Z" fill="#1E1E1E"/>
</svg>
